<?xml version="1.0" encoding="utf-8"?>
<!-- Generator: Adobe Illustrator 16.0.0, SVG Export Plug-In . SVG Version: 6.00 Build 0)  -->
<!DOCTYPE svg PUBLIC "-//W3C//DTD SVG 1.1//EN" "http://www.w3.org/Graphics/SVG/1.1/DTD/svg11.dtd">
<svg version="1.1" id="Layer_1" xmlns="http://www.w3.org/2000/svg" xmlns:xlink="http://www.w3.org/1999/xlink" x="0px" y="0px"
	 width="490.124px" height="484px" viewBox="694.376 -21.294 490.124 484" enable-background="new 694.376 -21.294 490.124 484"
	 xml:space="preserve">
<polygon fill="#B8F0FF" points="-327.912,-63.982 1806.568,-2.882 1799.909,223.703 -334.572,162.603 "/>
<path opacity="0.7" fill="#94C1C4" enable-background="new    " d="M-328.536-42.728c0,0,595.893,17.504,800.314,53.851
	c204.419,36.346,326.383,108.798,685.05,117.97c358.666,9.175,647.23-46.606,647.23-46.606l-4.181,142.262l-2134.541-58.979
	L-328.536-42.728z"/>
<path fill="#8BB1B2" d="M-332.436,79.502c0,0,373.93,8.574,720.578,33.881c346.647,25.308,354.121,61.975,628.231,68.239
	c274.11,6.262,451.429,26.933,451.429,26.933l-1802.762-42.048L-332.436,79.502z"/>
<path fill="#404041" d="M404.584,168.041c-0.109,3.744-3.231,6.69-6.977,6.582l-4.815-0.139c-3.745-0.108-6.689-3.23-6.582-6.976
	l1.007-34.775c0.108-3.744,3.232-6.69,6.976-6.582l4.815,0.14c3.746,0.108,6.693,3.23,6.583,6.974L404.584,168.041z"/>
<path fill="#404041" d="M378.607,172.25c-0.104,3.592-3.102,6.421-6.694,6.317l-4.62-0.133c-3.594-0.105-6.42-3.103-6.317-6.695
	l0.968-33.372c0.104-3.593,3.1-6.42,6.692-6.316l4.621,0.135c3.593,0.104,6.42,3.1,6.316,6.693L378.607,172.25z"/>
<path fill="#6B3E45" d="M416.64,148.417l16.369-8.506l47.5,1.377l15.831,7.9l-0.375,12.896c0,0-39.728,18.852-63.433,16.359
	C408.829,175.951,416.64,148.417,416.64,148.417z"/>
<polygon fill="#562932" points="480.506,141.289 459.706,149.666 459.166,168.293 495.754,169.354 496.34,149.188 "/>
<ellipse transform="matrix(-0.9996 -0.029 0.029 -0.9996 1052.5164 341.1002)" fill="#5D7F39" cx="528.731" cy="162.921" rx="4.32" ry="11.238"/>
<ellipse transform="matrix(-0.9996 -0.0291 0.0291 -0.9996 1086.9434 342.6138)" fill="#5D7F39" cx="545.961" cy="163.408" rx="2.89" ry="11.238"/>
<path fill="#5D7F39" d="M521.625,162.712c-0.386,6.194-1.98,11.137-3.56,11.039c-1.582-0.1-1.992-5.166-1.604-11.36
	c0.385-6.194,1.42-11.169,3.002-11.072C521.042,151.418,522.011,156.518,521.625,162.712z"/>
<path fill="#7BC14B" d="M1793.028,571.057l-2142.529-61.331l11.094-377.427c0,0,60.166,3.647,203.409,5.823
	c143.247,2.173,447.952,25.029,595.101,31.168c147.147,6.14,450.37-11.521,688.613-5.987
	c238.245,5.535,397.125,22.931,397.125,22.931l258.28,7.393L1793.028,571.057L1793.028,571.057z"/>
<path fill="#66A82C" d="M-336.116,215.16c97.532-4.276,159.505-25.543,324.484-9.256c164.978,16.286,481.718,44.624,600.432,46.095
	c118.711,1.474,122.469-24.67,269.208-20.469c91.164,2.609,116.785-2.2,210.858,11.726
	c146.013,21.617,118.057,42.568,312.156,66.753c194.103,24.186,415.411,31.805,415.411,31.805l1.234,229.373l-2153.143-61.63
	L-336.116,215.16z"/>
<g>
	<path fill="#F4D75C" d="M1024.238,162.237c0,0-82.892,45.615-193.221,83.951c-110.329,38.337,53.052,77.581-108.321,88.236
		c-161.37,10.658-384.001-35.42-463.472,11.48c-79.47,46.899,134.613,101.673,445.506,107.497
		c310.895,5.821,364.99-0.277,296.541,95.508l254.357,7.377c0,0-25.005-97.856-104.02-114.207
		c-198.059-40.978-559.149-26.44-681.481-51.075c-122.326-24.64-229.24-46.268,105.312-32.094
		c334.846,14.187,261.847-54.707,244.031-72.16c-19.496-19.098,21.02-26.209,93.787-63.738
		c78.593-40.534,114.411-60.007,114.411-60.007"/>
</g>
<path fill="#FFFFFF" d="M354.543,10.533C367.285-4.88,390.199-0.639,424.218,0.347c34.018,0.987,39.621,7.235,39.621,7.235
	s4.514-22.725,53.452-4.569c48.941,18.156,58.141,33.198,58.141,33.198s5.655-17.823,38.075-5.962
	c32.419,11.862,42.131,31.415-22.188,34.048c-64.318,2.632-196.035,3.307-199.949-16.72
	C391.371,47.577,314.594,58.841,354.543,10.533z"/>
<path fill="#FFFFFF" d="M788.872-0.951c5.662-9.984,18.383-17.349,38.176-12.688c19.792,4.664,26.145,14.554,26.145,14.554
	s1.763-7.946,26.761-6.543c24.994,1.403,24.803,8.039,24.803,8.039s27.939-12.052,37.392-3.304
	c9.455,8.752,16.276,20.189-34.336,21.276C857.195,21.469,774.332,24.686,788.872-0.951z"/>
<path fill="#EDECEE" d="M488.796,107.508c0.059-22.182,40.941-16.158,59.426-11.124c18.483,5.033,31.721,13.767,31.721,13.767
	s-3.667-6.444,22.669-6.366c26.337,0.08,28.475,14.917,28.475,14.917S488.666,156.328,488.796,107.508z"/>
<circle fill="#FFF766" cx="1084.45" cy="49.323" r="48.69"/>
<path fill="#FFFFFF" d="M1157.803,39.348c24.63-9.364,67.176,0.624,84.508,11.03c17.336,10.401,116.608,33.453-15.573,44.728
	c-132.184,11.276-147.69-4.291-119.791-39.597C1134.846,20.205,1157.803,39.348,1157.803,39.348z"/>
<path fill="#2F688E" d="M275.373,66.335c0.096-0.37,0.235-0.729,0.393-1.081c0.158-0.351,0.346-0.689,0.561-1.025
	c0.224-0.324,0.479-0.64,0.802-0.924c0.161-0.142,0.344-0.271,0.553-0.378c0.202-0.112,0.442-0.193,0.702-0.223
	c0.127-0.025,0.263-0.011,0.396-0.011c0.128,0.012,0.263,0.042,0.393,0.073c0.119,0.045,0.246,0.089,0.359,0.148
	c0.106,0.063,0.216,0.126,0.317,0.195l0.275,0.226c0.085,0.079,0.156,0.164,0.234,0.244c0.155,0.166,0.271,0.342,0.399,0.516
	c0.104,0.177,0.225,0.356,0.314,0.537c0.088,0.181,0.193,0.362,0.264,0.545c0.072,0.184,0.158,0.368,0.223,0.552l0.196,0.557
	l-1.271-0.132c0.11-0.185,0.209-0.336,0.322-0.498c0.107-0.159,0.224-0.314,0.344-0.462c0.242-0.299,0.498-0.591,0.792-0.858
	c0.291-0.268,0.609-0.518,0.982-0.723c0.185-0.1,0.384-0.195,0.599-0.259c0.108-0.033,0.214-0.062,0.332-0.079
	c0.112-0.021,0.227-0.036,0.346-0.037c0.234-0.011,0.476,0.027,0.698,0.098c0.224,0.069,0.43,0.177,0.605,0.308
	c0.094,0.06,0.169,0.134,0.246,0.207c0.083,0.07,0.154,0.146,0.216,0.225c0.136,0.153,0.246,0.318,0.349,0.485
	c0.191,0.34,0.345,0.684,0.455,1.038c0.049,0.179,0.107,0.354,0.148,0.534c0.034,0.181,0.074,0.359,0.104,0.539
	c-0.201-0.309-0.388-0.615-0.592-0.904l-0.313-0.421c-0.113-0.13-0.221-0.263-0.339-0.38c-0.119-0.114-0.232-0.233-0.359-0.323
	c-0.059-0.051-0.124-0.093-0.189-0.128c-0.065-0.036-0.125-0.08-0.191-0.102c-0.259-0.111-0.503-0.144-0.747-0.093
	c-0.06,0.007-0.122,0.022-0.183,0.047c-0.062,0.016-0.123,0.045-0.184,0.074c-0.121,0.057-0.245,0.128-0.365,0.213
	c-0.242,0.171-0.473,0.383-0.693,0.617c-0.217,0.235-0.429,0.488-0.625,0.757c-0.097,0.137-0.194,0.27-0.288,0.407
	c-0.09,0.137-0.186,0.286-0.257,0.41l-0.766,1.332l-0.505-1.464l-0.173-0.5c-0.057-0.17-0.129-0.327-0.191-0.49
	c-0.062-0.167-0.139-0.316-0.206-0.472c-0.067-0.161-0.157-0.296-0.231-0.445c-0.086-0.133-0.165-0.28-0.257-0.394
	c-0.047-0.057-0.092-0.121-0.14-0.173l-0.146-0.148l-0.146-0.118c-0.05-0.033-0.101-0.052-0.152-0.085
	c-0.05-0.015-0.1-0.039-0.153-0.054c-0.051-0.001-0.105-0.029-0.165-0.021c-0.056,0.001-0.118-0.003-0.18,0.012
	c-0.063,0.005-0.13,0.021-0.196,0.044c-0.136,0.039-0.273,0.112-0.416,0.188c-0.281,0.16-0.558,0.382-0.815,0.626
	c-0.135,0.121-0.264,0.247-0.391,0.377l-0.373,0.408C275.849,65.746,275.611,66.038,275.373,66.335z"/>
<path fill="#2F5F7F" d="M356.825,88.13c0.169-0.375,0.382-0.73,0.619-1.07c0.236-0.342,0.508-0.663,0.807-0.965
	c0.148-0.151,0.311-0.293,0.483-0.425c0.17-0.136,0.351-0.264,0.544-0.376c0.094-0.06,0.196-0.111,0.299-0.158
	c0.102-0.051,0.21-0.091,0.32-0.131c0.107-0.043,0.221-0.075,0.337-0.102c0.117-0.033,0.235-0.046,0.358-0.061
	c0.118-0.021,0.243-0.018,0.367-0.018c0.124-0.003,0.247,0.015,0.371,0.033c0.125,0.014,0.244,0.047,0.362,0.083
	c0.123,0.031,0.238,0.076,0.348,0.127c0.232,0.093,0.434,0.223,0.631,0.359l0.278,0.218c0.09,0.074,0.167,0.157,0.252,0.236
	c0.175,0.156,0.3,0.34,0.451,0.511c0.133,0.177,0.258,0.359,0.381,0.541c0.109,0.188,0.221,0.375,0.324,0.565l0.286,0.574
	l-1.083-0.128c0.151-0.187,0.286-0.331,0.435-0.488c0.147-0.151,0.296-0.302,0.454-0.442c0.316-0.28,0.647-0.547,1.01-0.779
	c0.182-0.116,0.368-0.226,0.562-0.325c0.195-0.102,0.396-0.19,0.606-0.265c0.104-0.04,0.21-0.072,0.317-0.104
	c0.106-0.035,0.218-0.062,0.328-0.081c0.112-0.023,0.224-0.042,0.339-0.05c0.113-0.015,0.227-0.026,0.343-0.024
	c0.115-0.001,0.23-0.002,0.346,0.013c0.115,0.014,0.231,0.021,0.343,0.05c0.227,0.042,0.444,0.118,0.654,0.21l0.3,0.154l0.277,0.186
	c0.094,0.058,0.17,0.137,0.256,0.205c0.083,0.07,0.165,0.139,0.233,0.223l0.214,0.235l0.187,0.252
	c0.13,0.162,0.226,0.349,0.333,0.521c0.093,0.182,0.179,0.367,0.265,0.549c0.069,0.191,0.143,0.378,0.207,0.567
	c-0.129-0.156-0.249-0.315-0.372-0.47c-0.131-0.148-0.256-0.299-0.388-0.442c-0.144-0.131-0.263-0.284-0.412-0.402l-0.215-0.185
	l-0.227-0.16c-0.073-0.056-0.148-0.106-0.23-0.149c-0.078-0.042-0.151-0.099-0.235-0.129l-0.237-0.106l-0.247-0.076
	c-0.166-0.036-0.329-0.069-0.494-0.077c-0.166-0.012-0.33-0.004-0.493,0.021c-0.083,0.006-0.165,0.022-0.245,0.043
	c-0.083,0.018-0.164,0.042-0.245,0.069c-0.163,0.046-0.32,0.111-0.477,0.187c-0.159,0.071-0.312,0.16-0.464,0.25
	c-0.152,0.09-0.302,0.192-0.447,0.299c-0.29,0.214-0.575,0.451-0.837,0.707c-0.133,0.128-0.266,0.257-0.391,0.392
	c-0.125,0.132-0.254,0.281-0.349,0.401l-0.634,0.799l-0.451-0.928l-0.248-0.514l-0.275-0.493c-0.099-0.155-0.197-0.312-0.3-0.461
	c-0.112-0.139-0.214-0.294-0.334-0.415c-0.06-0.063-0.116-0.133-0.175-0.19l-0.192-0.17c-0.131-0.098-0.259-0.204-0.401-0.274
	c-0.069-0.042-0.142-0.077-0.214-0.101c-0.072-0.03-0.145-0.061-0.221-0.073c-0.073-0.021-0.151-0.044-0.232-0.047
	c-0.077-0.011-0.154-0.024-0.237-0.019c-0.081-0.002-0.163-0.002-0.246,0.01c-0.082,0.008-0.166,0.017-0.25,0.038
	c-0.169,0.032-0.338,0.086-0.509,0.151c-0.172,0.063-0.341,0.142-0.507,0.232c-0.166,0.088-0.328,0.192-0.49,0.299
	c-0.329,0.208-0.638,0.457-0.943,0.715C357.407,87.559,357.113,87.837,356.825,88.13z"/>
<path fill="#26A9E0" d="M562.895,11.168c0.164-0.463,0.391-0.901,0.647-1.327c0.257-0.423,0.565-0.819,0.903-1.204
	c0.349-0.375,0.743-0.727,1.211-1.019c0.233-0.149,0.486-0.275,0.76-0.377c0.27-0.107,0.564-0.189,0.875-0.225
	c0.304-0.04,0.625-0.042,0.942,0.003c0.161,0.016,0.313,0.057,0.469,0.101c0.156,0.038,0.305,0.09,0.448,0.156
	c0.296,0.113,0.556,0.276,0.807,0.444c0.24,0.177,0.472,0.362,0.669,0.564c0.221,0.193,0.376,0.416,0.562,0.626
	c0.166,0.217,0.319,0.435,0.471,0.656c0.134,0.229,0.271,0.455,0.396,0.684l0.345,0.691l-1.915-0.227
	c0.194-0.236,0.352-0.407,0.533-0.596c0.18-0.185,0.358-0.364,0.552-0.532c0.386-0.336,0.791-0.658,1.237-0.935
	c0.445-0.277,0.922-0.527,1.444-0.704c0.257-0.089,0.526-0.17,0.807-0.216c0.276-0.053,0.566-0.082,0.856-0.076
	c0.287-0.003,0.583,0.036,0.865,0.1c0.284,0.061,0.558,0.162,0.814,0.284l0.372,0.203l0.333,0.241
	c0.208,0.175,0.415,0.347,0.58,0.551c0.172,0.197,0.321,0.403,0.455,0.617c0.148,0.204,0.252,0.43,0.364,0.648
	c0.104,0.223,0.188,0.451,0.279,0.673c0.065,0.233,0.136,0.46,0.193,0.694c-0.17-0.172-0.326-0.349-0.482-0.52
	c-0.167-0.163-0.324-0.332-0.492-0.486c-0.181-0.141-0.326-0.309-0.509-0.432c-0.17-0.138-0.345-0.26-0.527-0.364
	c-0.174-0.112-0.358-0.195-0.536-0.273l-0.27-0.102l-0.269-0.068c-0.359-0.067-0.707-0.069-1.055-0.002
	c-0.687,0.131-1.371,0.507-2.014,0.993c-0.316,0.248-0.633,0.514-0.928,0.807c-0.146,0.144-0.294,0.292-0.437,0.445
	c-0.137,0.145-0.287,0.321-0.386,0.445l-1.118,1.423l-0.797-1.653l-0.281-0.582l-0.303-0.554c-0.213-0.355-0.438-0.695-0.687-0.975
	c-0.12-0.15-0.248-0.273-0.378-0.394c-0.134-0.104-0.263-0.221-0.402-0.293c-0.067-0.047-0.137-0.085-0.21-0.112
	c-0.072-0.033-0.144-0.067-0.217-0.083c-0.146-0.053-0.302-0.083-0.468-0.091c-0.167-0.011-0.34-0.006-0.524,0.025
	c-0.182,0.023-0.37,0.074-0.562,0.138c-0.193,0.059-0.386,0.141-0.578,0.232c-0.197,0.089-0.39,0.193-0.58,0.308
	c-0.392,0.217-0.766,0.486-1.144,0.765C563.633,10.545,563.267,10.847,562.895,11.168z"/>
<path fill="#26A9E0" d="M1050.792,37.916c0.164-0.462,0.393-0.901,0.649-1.325c0.257-0.424,0.561-0.82,0.902-1.202
	c0.347-0.376,0.74-0.729,1.211-1.019c0.232-0.15,0.487-0.278,0.76-0.38c0.27-0.106,0.564-0.188,0.874-0.221
	c0.306-0.042,0.628-0.043,0.941,0.002c0.165,0.015,0.315,0.056,0.47,0.098c0.159,0.039,0.304,0.092,0.447,0.158
	c0.3,0.113,0.559,0.276,0.808,0.445c0.241,0.177,0.472,0.36,0.67,0.563c0.222,0.193,0.376,0.413,0.562,0.626
	c0.166,0.214,0.321,0.437,0.471,0.658c0.134,0.226,0.272,0.453,0.395,0.683l0.346,0.69l-1.914-0.228
	c0.195-0.236,0.352-0.407,0.533-0.596c0.179-0.183,0.359-0.364,0.555-0.53c0.383-0.334,0.789-0.659,1.233-0.935
	c0.445-0.279,0.923-0.529,1.445-0.705c0.26-0.089,0.525-0.17,0.805-0.216c0.278-0.052,0.566-0.078,0.856-0.076
	c0.287-0.003,0.58,0.038,0.863,0.1c0.285,0.061,0.561,0.163,0.813,0.284l0.371,0.203l0.337,0.24c0.207,0.175,0.412,0.35,0.578,0.552
	c0.173,0.195,0.322,0.402,0.457,0.616c0.148,0.206,0.249,0.431,0.364,0.649c0.101,0.224,0.188,0.452,0.273,0.674
	c0.069,0.234,0.142,0.461,0.196,0.694c-0.17-0.172-0.324-0.349-0.484-0.52c-0.164-0.164-0.321-0.332-0.492-0.486
	c-0.179-0.141-0.325-0.309-0.507-0.434c-0.168-0.136-0.345-0.258-0.528-0.361c-0.174-0.114-0.359-0.197-0.538-0.276l-0.267-0.101
	l-0.269-0.067c-0.362-0.069-0.708-0.067-1.055-0.001c-0.691,0.129-1.375,0.505-2.014,0.992c-0.319,0.247-0.633,0.512-0.931,0.806
	c-0.146,0.146-0.294,0.292-0.434,0.446c-0.139,0.145-0.288,0.321-0.386,0.445l-1.122,1.424l-0.796-1.653l-0.281-0.584l-0.306-0.555
	c-0.209-0.352-0.436-0.694-0.686-0.973c-0.115-0.151-0.247-0.273-0.376-0.395c-0.135-0.104-0.263-0.221-0.403-0.294
	c-0.068-0.046-0.138-0.084-0.21-0.11c-0.07-0.032-0.145-0.068-0.217-0.083c-0.147-0.053-0.306-0.083-0.469-0.092
	c-0.164-0.009-0.341-0.006-0.523,0.024c-0.181,0.024-0.368,0.077-0.561,0.137c-0.194,0.06-0.384,0.142-0.579,0.234
	c-0.194,0.088-0.388,0.194-0.578,0.308c-0.396,0.217-0.766,0.486-1.143,0.765C1051.535,37.293,1051.166,37.597,1050.792,37.916z"/>
<path fill="#BBBDBF" d="M728.326,91.033c0.216-0.323,0.477-0.608,0.762-0.875c0.283-0.268,0.601-0.499,0.943-0.719
	c0.349-0.21,0.731-0.388,1.156-0.501c0.216-0.062,0.44-0.098,0.681-0.112c0.235-0.018,0.487-0.01,0.737,0.041
	c0.252,0.043,0.506,0.125,0.746,0.239c0.238,0.116,0.467,0.263,0.66,0.434c0.204,0.168,0.367,0.358,0.521,0.555
	c0.144,0.197,0.277,0.4,0.377,0.604c0.123,0.206,0.188,0.413,0.278,0.62c0.072,0.207,0.132,0.412,0.197,0.62
	c0.098,0.408,0.169,0.813,0.216,1.216l-1.746-0.82c0.216-0.133,0.373-0.22,0.56-0.318c0.181-0.091,0.362-0.184,0.551-0.26
	c0.373-0.152,0.759-0.295,1.167-0.388c0.807-0.187,1.732-0.252,2.637,0.067c0.223,0.074,0.44,0.186,0.641,0.312
	c0.202,0.125,0.386,0.278,0.548,0.44c0.164,0.167,0.305,0.342,0.417,0.532c0.11,0.189,0.218,0.377,0.283,0.575
	c0.076,0.195,0.128,0.392,0.168,0.587c0.052,0.193,0.065,0.389,0.086,0.582c0.011,0.194,0.01,0.385,0.008,0.574
	c-0.021,0.192-0.036,0.379-0.066,0.563c-0.182-0.332-0.348-0.653-0.534-0.952c-0.107-0.14-0.181-0.295-0.289-0.422
	c-0.099-0.135-0.205-0.259-0.317-0.368c-0.106-0.118-0.218-0.212-0.333-0.3c-0.117-0.085-0.228-0.161-0.345-0.218
	c-0.237-0.112-0.471-0.175-0.716-0.193c-0.488-0.041-1.039,0.073-1.598,0.273c-0.279,0.107-0.562,0.219-0.839,0.363l-0.412,0.214
	c-0.128,0.07-0.28,0.163-0.37,0.221l-1.522,1.025l-0.221-1.846c-0.041-0.324-0.082-0.642-0.146-0.945
	c-0.063-0.297-0.139-0.587-0.24-0.834c-0.044-0.131-0.101-0.241-0.156-0.352c-0.063-0.098-0.114-0.205-0.186-0.284
	c-0.062-0.088-0.134-0.158-0.212-0.221c-0.077-0.07-0.164-0.127-0.269-0.173c-0.403-0.205-1.049-0.219-1.715-0.109
	c-0.338,0.043-0.682,0.135-1.036,0.228C729.047,90.798,728.696,90.913,728.326,91.033z"/>
<path fill="#26A9E0" d="M796.829,81.53c-0.332-0.334-0.658-0.656-0.995-0.956c-0.334-0.3-0.668-0.588-1.028-0.829
	c-0.686-0.497-1.44-0.857-2.035-0.835c-0.148,0-0.288,0.025-0.415,0.068c-0.133,0.039-0.264,0.091-0.385,0.171
	c-0.065,0.031-0.127,0.076-0.191,0.128c-0.061,0.049-0.127,0.083-0.188,0.146l-0.184,0.169l-0.179,0.203
	c-0.121,0.125-0.229,0.291-0.348,0.433l-0.322,0.494c-0.215,0.337-0.403,0.708-0.594,1.08l-0.902,1.755l-1.058-1.643
	c-0.083-0.125-0.21-0.307-0.325-0.457c-0.119-0.158-0.249-0.31-0.373-0.462c-0.252-0.305-0.527-0.584-0.801-0.848
	c-0.559-0.519-1.162-0.934-1.779-1.098c-0.155-0.041-0.31-0.07-0.468-0.076c-0.159-0.012-0.316,0.005-0.487,0.029
	c-0.167,0.022-0.33,0.082-0.508,0.139c-0.167,0.076-0.345,0.146-0.513,0.252c-0.176,0.092-0.342,0.213-0.512,0.335
	c-0.172,0.118-0.321,0.271-0.496,0.402l-0.481,0.451c-0.156,0.158-0.309,0.322-0.478,0.481c0.053-0.22,0.128-0.438,0.194-0.663
	c0.083-0.213,0.177-0.427,0.272-0.642c0.107-0.209,0.214-0.42,0.353-0.619c0.133-0.198,0.27-0.401,0.44-0.585
	c0.156-0.196,0.359-0.358,0.56-0.53c0.21-0.157,0.438-0.301,0.691-0.417c0.251-0.116,0.522-0.208,0.802-0.256
	c0.282-0.054,0.577-0.078,0.856-0.055c0.286,0.013,0.565,0.062,0.833,0.132c0.27,0.065,0.526,0.165,0.766,0.275
	c0.245,0.107,0.478,0.229,0.696,0.367c0.221,0.136,0.427,0.283,0.626,0.436c0.404,0.305,0.759,0.651,1.097,1.006
	c0.167,0.176,0.322,0.365,0.474,0.555c0.16,0.196,0.292,0.374,0.457,0.617l-1.964,0.114c0.227-0.438,0.468-0.871,0.744-1.296
	c0.147-0.212,0.307-0.417,0.462-0.623c0.182-0.198,0.334-0.405,0.544-0.592l0.312-0.278l0.345-0.257
	c0.237-0.164,0.496-0.317,0.792-0.425c0.565-0.239,1.246-0.314,1.849-0.19c0.305,0.053,0.593,0.153,0.844,0.283
	c0.263,0.124,0.497,0.269,0.704,0.437c0.216,0.162,0.407,0.336,0.582,0.521c0.177,0.184,0.334,0.375,0.485,0.574
	c0.282,0.403,0.536,0.812,0.741,1.242C796.544,80.629,796.72,81.07,796.829,81.53z"/>
<path fill="#5D7F39" d="M-290.581,134.383c0,0,374.175,10.95,536.11,25.788c102.088,9.355,323.884,18.112,454.388,13.18
	c159.38-6.023,471.585-8.894,471.585-8.894s-126.245-4.859-292.227-3.25c-165.981,1.609-226.841,11.408-383.389,6.225
	c-156.546-5.182-349.66-21.063-482.487-26.842C-119.429,134.81-290.581,134.383-290.581,134.383L-290.581,134.383z"/>
<path fill="#E5C851" d="M844.604,231.603l-31.51,2.707l-36.14,14.555c0,0-25.326,14.638-15.659,29.696
	c9.667,15.057,31.291,23.028,31.291,23.028s-15.774-35.909,1.286-44.407C822.096,243.121,844.604,231.603,844.604,231.603z"/>
<path fill="#F9F9F9" d="M495.74,31.254c-1.064-8.65-16.011-32.292-21.679-28.174c-5.667,4.122-12.271,4.788,2.208,20.839
	C490.748,39.971,497.092,42.237,495.74,31.254z"/>
<path fill="#F9F9F9" d="M358.233,40.242c-0.323-14.725,20.423-45.539,39.144-25.239C416.1,35.304,358.609,57.408,358.233,40.242z"/>
<path fill="#F9F9F9" d="M789.939,94.178c15.093-0.944,40.613,11.154,18.076,12.997C785.476,109.019,774.849,95.123,789.939,94.178z"
	/>
<path fill="#F9F9F9" d="M860.101,1.204c4.421-1.494,21.304,5.24,8.419,9.092C855.638,14.153,849.779,4.688,860.101,1.204z"/>
<ellipse transform="matrix(-0.9996 -0.029 0.029 -0.9996 673.4418 322.7749)" fill="#5D7F39" cx="339.059" cy="156.51" rx="2.773" ry="6.886"/>
<path fill="#FFFFFF" d="M124.484,17.835C109.055-3.197,78.897,0.593,34.522-0.695C-9.853-1.981-17.619,5.731-17.619,5.731
	s-4.16-29.935-69.264-9.991c-65.102,19.944-78.219,38.836-78.219,38.836s-6.017-23.639-49.133-10.643
	c-43.112,12.995-57.238,37.724,26.321,46.015c83.556,8.289,255.027,19.128,261.64-6.658
	C73.728,63.292,172.854,83.763,124.484,17.835z"/>
<path fill="#8BB1B2" d="M177.565,42.331c-0.178-0.615-0.441-1.202-0.742-1.772c-0.304-0.572-0.673-1.111-1.088-1.638
	c-0.424-0.515-0.912-1.003-1.5-1.417c-0.291-0.213-0.611-0.396-0.959-0.55c-0.344-0.159-0.723-0.288-1.121-0.357
	c-0.394-0.075-0.815-0.102-1.23-0.066c-0.21,0.007-0.413,0.051-0.618,0.095c-0.207,0.038-0.403,0.095-0.595,0.172
	c-0.396,0.124-0.745,0.316-1.083,0.517c-0.327,0.212-0.644,0.434-0.916,0.682c-0.3,0.235-0.521,0.512-0.779,0.773
	c-0.232,0.27-0.448,0.544-0.664,0.822c-0.189,0.285-0.385,0.57-0.566,0.856l-0.503,0.875l2.512-0.151
	c-0.232-0.321-0.425-0.554-0.649-0.816c-0.22-0.252-0.438-0.5-0.679-0.731c-0.478-0.469-0.979-0.917-1.541-1.312
	c-0.556-0.396-1.159-0.755-1.824-1.025c-0.332-0.136-0.675-0.261-1.037-0.342c-0.354-0.09-0.73-0.147-1.109-0.164
	c-0.375-0.028-0.76,0.003-1.131,0.065c-0.375,0.057-0.739,0.168-1.081,0.308l-0.498,0.233l-0.457,0.289
	c-0.283,0.212-0.567,0.422-0.795,0.673c-0.24,0.243-0.451,0.501-0.64,0.769c-0.209,0.255-0.36,0.542-0.523,0.82
	c-0.149,0.282-0.279,0.572-0.412,0.854c-0.104,0.3-0.214,0.591-0.302,0.89c0.233-0.212,0.449-0.43,0.668-0.641
	c0.23-0.2,0.446-0.408,0.676-0.596c0.244-0.17,0.448-0.376,0.693-0.526c0.231-0.167,0.469-0.314,0.714-0.432
	c0.236-0.136,0.483-0.229,0.72-0.317l0.358-0.112l0.354-0.068c0.473-0.06,0.927-0.037,1.374,0.077
	c0.888,0.221,1.747,0.764,2.547,1.446c0.397,0.348,0.789,0.717,1.149,1.122c0.18,0.199,0.364,0.4,0.537,0.611
	c0.168,0.199,0.35,0.439,0.467,0.607l1.351,1.939l1.162-2.093l0.41-0.737l0.44-0.698c0.302-0.446,0.622-0.873,0.967-1.218
	c0.166-0.188,0.342-0.335,0.522-0.482c0.183-0.126,0.359-0.268,0.546-0.352c0.092-0.057,0.184-0.102,0.28-0.129
	c0.095-0.04,0.192-0.077,0.291-0.093c0.195-0.057,0.399-0.086,0.615-0.083c0.217-0.001,0.445,0.02,0.681,0.072
	c0.234,0.045,0.475,0.125,0.721,0.222c0.247,0.089,0.49,0.213,0.734,0.347c0.249,0.128,0.492,0.282,0.732,0.443
	c0.495,0.312,0.961,0.692,1.431,1.083C176.651,41.467,177.104,41.889,177.565,42.331z"/>
<path fill="#F9F9F9" d="M-99.775,26.923c2.039-11.186,23.29-40.845,30.36-35.049s15.62,7.162-4.448,26.969
	C-93.935,38.65-102.363,41.123-99.775,26.923z"/>
<path fill="#F9F9F9" d="M117.43,51.849c1.534-19.15-23.15-60.845-49.064-35.826C42.453,41.043,115.645,74.173,117.43,51.849z"/>
<path fill="#8BB1B2" d="M-153.923,58.781c-0.245-0.843-0.604-1.647-1.018-2.429c-0.416-0.782-0.92-1.52-1.488-2.242
	c-0.579-0.705-1.246-1.371-2.053-1.94c-0.397-0.289-0.836-0.541-1.313-0.752c-0.473-0.217-0.991-0.395-1.536-0.488
	c-0.54-0.103-1.115-0.138-1.683-0.092c-0.289,0.011-0.564,0.069-0.847,0.13c-0.282,0.052-0.551,0.129-0.814,0.232
	c-0.54,0.17-1.019,0.433-1.483,0.709c-0.449,0.289-0.879,0.595-1.255,0.935c-0.411,0.322-0.713,0.7-1.064,1.057
	c-0.32,0.367-0.614,0.746-0.909,1.124c-0.258,0.391-0.53,0.78-0.776,1.174l-0.688,1.196l3.439-0.207
	c-0.322-0.44-0.583-0.76-0.888-1.116c-0.304-0.347-0.601-0.687-0.931-1.005c-0.652-0.639-1.339-1.255-2.108-1.795
	c-0.763-0.541-1.587-1.035-2.5-1.404c-0.452-0.187-0.921-0.358-1.416-0.468c-0.486-0.123-1-0.201-1.515-0.224
	c-0.516-0.038-1.043,0.004-1.553,0.089c-0.512,0.077-1.011,0.23-1.48,0.421l-0.683,0.319l-0.621,0.398
	c-0.39,0.29-0.776,0.578-1.09,0.922c-0.329,0.333-0.616,0.685-0.878,1.052c-0.283,0.349-0.492,0.742-0.714,1.12
	c-0.204,0.388-0.383,0.784-0.563,1.171c-0.142,0.408-0.293,0.809-0.417,1.219c0.32-0.292,0.615-0.588,0.917-0.877
	c0.313-0.274,0.611-0.559,0.922-0.816c0.335-0.231,0.613-0.516,0.949-0.719c0.319-0.228,0.644-0.428,0.979-0.592
	c0.322-0.185,0.661-0.312,0.986-0.433l0.49-0.153l0.487-0.091c0.647-0.083,1.27-0.051,1.879,0.103
	c1.218,0.302,2.394,1.046,3.488,1.98c0.542,0.474,1.077,0.98,1.573,1.534c0.246,0.273,0.497,0.551,0.733,0.838
	c0.229,0.273,0.479,0.6,0.639,0.832l1.85,2.655l1.589-2.863l0.561-1.01l0.606-0.954c0.413-0.612,0.85-1.195,1.323-1.668
	c0.227-0.257,0.47-0.459,0.718-0.662c0.248-0.172,0.491-0.366,0.745-0.482c0.126-0.077,0.254-0.138,0.385-0.179
	c0.13-0.051,0.262-0.105,0.398-0.126c0.266-0.079,0.546-0.117,0.843-0.113c0.295-0.001,0.606,0.025,0.929,0.099
	c0.322,0.062,0.651,0.17,0.988,0.302c0.337,0.123,0.67,0.291,1.006,0.473c0.341,0.178,0.673,0.387,1.003,0.609
	c0.679,0.429,1.314,0.947,1.959,1.483C-155.176,57.594-154.554,58.171-153.923,58.781z"/>
<path fill="#FFFFFF" d="M1524.704,54.801c3.9-11.649,12.45-20.365,25.522-15.251c13.071,5.118,17.147,16.488,17.147,16.488
	s1.282-9.232,17.856-7.965c16.573,1.267,16.349,8.957,16.349,8.957s18.723-14.365,24.873-4.367
	c6.148,10.005,10.514,23.156-23.1,25.142C1569.737,79.796,1514.683,84.71,1524.704,54.801z"/>
<path fill="#26A9E0" d="M982.092,67.764c0.26-0.728,0.615-1.413,1.02-2.079c0.401-0.665,0.879-1.284,1.415-1.888
	c0.542-0.59,1.164-1.139,1.899-1.597c0.365-0.235,0.763-0.435,1.188-0.596c0.426-0.166,0.888-0.296,1.369-0.348
	c0.485-0.065,0.99-0.067,1.48,0.005c0.258,0.023,0.493,0.087,0.735,0.155c0.251,0.06,0.48,0.143,0.704,0.244
	c0.468,0.179,0.872,0.435,1.265,0.698c0.378,0.277,0.738,0.566,1.053,0.884c0.349,0.304,0.589,0.65,0.878,0.981
	c0.263,0.339,0.503,0.687,0.742,1.034c0.208,0.355,0.425,0.711,0.619,1.069l0.542,1.084l-3.006-0.357
	c0.305-0.371,0.553-0.639,0.838-0.937c0.279-0.286,0.562-0.57,0.867-0.833c0.607-0.527,1.238-1.033,1.938-1.468
	c0.701-0.433,1.448-0.828,2.267-1.103c0.407-0.14,0.823-0.267,1.266-0.338c0.433-0.083,0.889-0.124,1.342-0.119
	c0.451-0.008,0.91,0.057,1.354,0.157c0.446,0.092,0.877,0.253,1.273,0.445l0.585,0.317l0.525,0.377
	c0.326,0.275,0.649,0.547,0.907,0.866c0.275,0.306,0.506,0.632,0.719,0.965c0.231,0.322,0.394,0.677,0.57,1.017
	c0.159,0.351,0.293,0.71,0.429,1.057c0.108,0.367,0.224,0.726,0.31,1.091c-0.27-0.271-0.509-0.551-0.761-0.817
	c-0.262-0.256-0.507-0.519-0.77-0.761c-0.28-0.221-0.513-0.484-0.795-0.681c-0.265-0.214-0.542-0.406-0.828-0.566
	c-0.276-0.179-0.562-0.308-0.846-0.432l-0.419-0.159l-0.42-0.106c-0.566-0.108-1.114-0.106-1.653-0.002
	c-1.084,0.205-2.155,0.793-3.16,1.558c-0.499,0.388-0.995,0.803-1.456,1.264c-0.233,0.23-0.466,0.46-0.688,0.698
	c-0.215,0.227-0.45,0.502-0.604,0.697l-1.758,2.234l-1.248-2.592l-0.441-0.915l-0.482-0.87c-0.331-0.553-0.682-1.09-1.07-1.526
	c-0.193-0.238-0.392-0.429-0.597-0.619c-0.211-0.164-0.412-0.347-0.632-0.462c-0.105-0.072-0.217-0.132-0.329-0.173
	c-0.107-0.05-0.224-0.106-0.34-0.13c-0.229-0.083-0.479-0.13-0.737-0.143c-0.258-0.015-0.535-0.011-0.818,0.038
	c-0.286,0.039-0.583,0.121-0.88,0.216c-0.307,0.093-0.603,0.222-0.911,0.364c-0.306,0.139-0.606,0.306-0.908,0.484
	c-0.616,0.34-1.2,0.761-1.796,1.198C983.251,66.787,982.678,67.263,982.092,67.764z"/>
<g>
	<g>
		<path fill="#E5C851" d="M430.413,416.34c0,0,216.518-5.505,336.376-4.368c119.854,1.136,198.217,14.804,157.303,68.204
			c0,0,27.32-45.479-98.802-45.479C699.174,434.695,491.715,434.912,430.413,416.34z"/>
		<g>
			<path fill="#F2F2F2" d="M688.212,482.113c1.983-9.84-0.874-24.231,3.838-36.188c4.712-11.959-3.794-31.013-1.458-58.895
				c2.335-27.884,6.872-44.701,4.026-55.072c-2.847-10.372-10.054-54.604-2.595-80.49c7.457-25.888-9.655-32.773,16.242-29.229
				c25.896,3.542,13.159,14.731,41.341,5.987c28.181-8.742,32.348,0.354,49.799-2.955c17.451-3.31,33.534-25.397,65.938-20.808
				c32.402,4.589,75.504,37.745,111.703,35.221c0,0,21.146-28.319,43.085-28.841c21.941-0.524,25.956-5.155,25.956-5.155
				s-0.323,6.775-6.795,10.163l15.716-3.82l-3.858,7.776c0,0,12.151,4.256,23.038,0.595c10.886-3.66,13.22,3.896,13.22,3.896
				s-0.815-23.703,28.195-24.296c29.013-0.593,37.454,14.165,25.321,32.37c-12.133,18.205-17.562,18.604-42.934,13.743
				c0,0,3.695,14.646,3.294,24.526c0,0,5.799,17.311,17.913,18.844c12.113,1.53,13.472,4.409,13.472,4.409
				s27.311,27.417,20.128,40.372c-7.179,12.955-9.508,22.076-25.623,27.637c-16.115,5.564-20.004,5.8-30.03,10.813
				c-10.027,5.014-51.071,16.379-78.168,2.83c0,0-8.15,10.495-17.271,16.116c-9.117,5.622-25.691,12.062-27.117,23.366
				c-1.428,11.305-7.886,17.312-1.275,33.319c6.61,16.009,15.709,39.395,15.709,39.395L688.212,482.113z"/>
			<path fill="#2B343A" d="M830.441,226.515c4.482-10.406,25.483-16.767,40.155-9.044s26.447-2.13,47.616,6.576
				c21.17,8.705,30.596,15.721,46.316,19.245c15.723,3.523,16.495,4.197,29.622,0c13.128-4.198,21.622,13.63,40.156,22.862
				c18.533,9.234,53.66,16.115,51.927,30.822c-1.732,14.707-4.447,25.518,7.722,22.429c12.169-3.09,18.732,8.226,13.905,24.578
				c-4.826,16.35,3.489,30.1-16.112,34.037c-19.602,3.935-57.991,14.285-72.774-2.473c0,0-18.645-46.104-23.277-36.835
				c-4.634,9.267,5.406,20.077,2.315,32.432c-3.088,12.357,3.691,20.52,3.691,20.52s-9.607,11.521-18.362,17.443
				c-8.757,5.924-11.073,15.631-11.073,15.631s-15.184-7.26-28.311-19.615c-13.128-12.355-7.724-13.834-25.483-8.463
				c-17.761,5.373-22.393,0.215-26.256,12.447c-3.86,12.232-1.544,7.6-17.761,19.181c-16.216,11.585-13.128,0.773-24.712,7.725
				c-11.583,6.948-7.721,17.76-11.583,26.254c-3.86,8.495-2.316,16.989-2.316,16.989s-31.66,4.65-34.75-35.128
				c-3.089-39.776,7.722-67.576,16.989-84.566c9.268-16.99,21.995-38.742,7.908-64.934
				C811.908,268.437,821.884,246.375,830.441,226.515z"/>
			<path fill="#2B343A" d="M842.797,206.505c0,0-14.672,17.349-28.572,28.829c-13.899,11.48-21.622,11.48-23.166,29.243
				c-1.544,17.762,5.406,23.034-8.494,30.049c-13.9,7.017-15.586,9.333-12.041,35.589c3.547,26.256,22.079,24.711,10.496,44.018
				c-11.584,19.305,6.951,13.193-0.772,22.428s-9.268,2.283-21.622-23.973c-12.355-26.255-12.355-14.673-10.04-46.334
				c2.316-31.66,13.901-45.452,2.316-41.258c-11.583,4.192-16.215,20.408-19.305,38.17c-3.089,17.761,2.317,21.735-7.723,25.927
				c-10.039,4.188-14.672-18.863-12.355,0c2.317,18.861,7.722,30.445,10.812,17.318c3.089-13.13,4.634-12.358,11.584,2.315
				c6.95,14.674,16.988,33.453,14.671,40.279c-2.316,6.826,7.723,12.232-6.95,11.461c-14.672-0.773-18.935-29.344-30.705-46.334
				c-11.767-16.989-19.854-20.849-15.425-35.521c4.429-14.673,9.064-28.741,3.658-47.963c-5.406-19.223-8.766-32.117-8.766-32.117
				s1.275-26.489,0-35.754c-1.273-9.268,32.473,3.638,32.473,3.638s-12.896,0.428-12.896,8.819s9.25-3.576,16.594-6.474
				c0,0-17.367,34.845,9.663,14.431c27.025-20.416,29.343-10.378,44.788-11.921C796.464,229.826,820.252,208.549,842.797,206.505z"
				/>
			<path fill="#2B343A" d="M1074.521,229.826c0,6.676,10.754,18.901,4.575,25.282c-6.176,6.378,9.068,20.181,26.928,24.863
				c0,0,0.651-23.073-8.034-33.857c0,0,18.945,16.048,37.479-2.822c18.534-18.871,25.483-45.899,0-48.215
				c-25.481-2.317-44.578-0.664-50.087,18.973v7.333C1085.381,221.383,1074.521,215.673,1074.521,229.826z"/>
			<path fill="#F8A893" d="M1110.631,302.303c16.191-4.254,34.764-7.122,37.037,12.551c2.271,19.678,6.099,23.626-14.241,33.792
				c-20.34,10.168-39.45,14.193-53.921,3.378c-14.472-10.812-23.736-39.598,0-45.817
				C1103.242,299.988,1098.275,305.552,1110.631,302.303z"/>
			<path fill="#E2816F" d="M1143.189,313.573c-0.846-8.454-12.553,5.059-10.91,12.008
				C1133.925,332.532,1144.251,324.147,1143.189,313.573z"/>
			<path fill="#60403C" d="M1105.913,359.553c0,0,0.851-10.541-7.963-15.691c-8.815-5.152-23.564-9.014-22.367-20.597
				c1.197-11.584,9.675-19.494,9.675-19.494s-25.467,4.05-23.923,20.267C1062.88,340.253,1072.062,362.763,1105.913,359.553z"/>
			<path fill="#562822" d="M1070.604,328.828c12.903-5.166,21.62,6.794,18.531,9.882
				C1086.048,341.798,1060.562,332.847,1070.604,328.828z"/>
			<path fill="#F2F2F2" d="M1008.052,278.105c8.583-5.221,15.446,11.014,7.724,12.643
				C1008.052,292.375,997.242,284.684,1008.052,278.105z"/>
			<path fill="#F2F2F2" d="M1100.837,259.871c0,0-12.991,0-2.752,11.133c5.495,5.977,4.979,1.109,4.979,1.109L1100.837,259.871z"/>
			<circle fill="#1F272B" cx="1012.829" cy="281.336" r="6.32"/>
			<circle fill="#1F272B" cx="1099.646" cy="263.961" r="4.546"/>
			<path fill="#1F272B" d="M975.618,259.692c0,0-12.65-4.922-20.609-8.01c-7.96-3.089-51.978,0.117-51.205,13.958
				c0.771,13.841,2.315,43.426,30.887,45.237c28.573,1.809,44.79-6.606,51.741-11.667c6.949-5.059-13.424-16.828-31.423-15.191
				c-18,1.638-12.595-18.493,5.938-13.833c18.533,4.661,13.127,18.373,20.85,13.833
				C989.519,279.483,975.618,259.692,975.618,259.692z"/>
			<path fill="#1F272B" d="M1099.738,229.288c-0.697-5.364-5.264-11.942,7.512-15.238c12.774-3.295,26.675-0.979,21.27,3.655
				c-5.406,4.632-10.364-4.634-15.222,11.583C1108.441,245.505,1100.3,233.63,1099.738,229.288z"/>
			<path fill="#1F272B" d="M1137.695,358.443c0,0-29.389,21.482-76.428,25.315C1061.268,383.758,1103.627,365.587,1137.695,358.443z
				"/>
			<path fill="#1F272B" d="M980.252,319.502c0,0,31.384,16.167,32.577,38.939C1012.829,358.443,980.252,326.315,980.252,319.502z"/>
			<path fill="#1F272B" d="M866.062,433.161c-1.642-8.502,16.119-48.603,16.119-49.4c0-0.8,10.038,25.237,0,39.247
				C872.142,437.015,866.062,433.161,866.062,433.161z"/>
			<path fill="#1F272B" d="M696.083,219.538c0,0,23.914-1.143,30.486,9.323C726.569,228.861,706.903,226.005,696.083,219.538z"/>
		</g>
		<path fill="#E1E0E2" d="M1046.086,205.688c0,0-7.61,11.169-20.981,13.812C1025.104,219.5,1042.383,225.23,1046.086,205.688z"/>
		<path fill="#E1E0E2" d="M1040.019,224.181l14.989-12.15C1055.008,212.031,1055.961,223.645,1040.019,224.181z"/>
		<path fill="#E1E0E2" d="M1029.78,236.845c-9.292-0.02,58.627-9.195,33.941,0c-24.685,9.193-49.475,14.165-23.451,13.479
			c26.022-0.687,25.896,7.78,25.896,7.78s-8.616-4.353-21.474-4.353c-12.856,0-36.596-3.55-20.869-8.717
			C1039.551,239.867,1062.693,236.907,1029.78,236.845z"/>
		<path fill="#E1E0E2" d="M1095.1,290.968c-5.213-5.48,21.669,0,21.669,0S1102.354,298.591,1095.1,290.968z"/>
		<path fill="#1F272B" d="M1003.493,279.971c0,0,4.02-11.237,15.13-5.989C1018.623,273.982,1003.48,262.201,1003.493,279.971z"/>
		<path fill="#1F272B" d="M1094.152,258.384c0,0,1.922-5.896,7.064-2.296C1101.217,256.088,1095.316,245.252,1094.152,258.384z"/>
		<path fill="#2B343A" d="M1003.493,281.337c0,0,13.814-10.524,15.655,2.683C1019.148,284.021,1020.555,263.462,1003.493,281.337z"
			/>
		<path fill="#2B343A" d="M1093.042,262.932c0,0,7.089-7.949,10.034,4.545l1.117-4.545l-1.117-6.414
			C1103.076,256.518,1093.097,253.834,1093.042,262.932z"/>
		<path fill="#1F272B" d="M876.25,214.74c0,0,33.941,64.046,31.885,107.266c-2.058,43.221,19.89,72.859-16.283,84.27
			C855.679,417.684,783.508,294.647,876.25,214.74z"/>
	</g>
	<path fill="#915F2D" d="M922.849,291.176c4.993,7.548,9.158,29.166,5.86,32.359c-3.297,3.194-25.558,3.158-26.38-3.419
		C901.504,313.539,918.186,284.127,922.849,291.176z"/>
	<circle fill="#7F4B1C" cx="918.742" cy="299.064" r="4.708"/>
	<g>
		<path fill="#7F4B1C" d="M912.158,318.75l-1.888-0.253l0.488-3.64c0.06-0.442,0.123-0.846,0.191-1.212
			c-0.135,0.127-0.299,0.256-0.491,0.386l-0.868,0.539l-0.805-1.314l2.621-1.607l1.673,0.225L912.158,318.75z"/>
		<path fill="#7F4B1C" d="M918.648,319.623l-4.99-0.669l0.162-1.224l1.908-1.472c0.547-0.438,0.906-0.738,1.078-0.902
			c0.172-0.163,0.297-0.308,0.371-0.432c0.077-0.123,0.123-0.258,0.144-0.402c0.023-0.179-0.017-0.327-0.118-0.448
			c-0.102-0.118-0.259-0.192-0.468-0.219c-0.217-0.03-0.443,0.002-0.681,0.097s-0.513,0.243-0.824,0.448l-0.859-1.332
			c0.397-0.27,0.725-0.456,0.983-0.561c0.261-0.104,0.537-0.172,0.832-0.206c0.293-0.033,0.616-0.027,0.97,0.021
			c0.446,0.06,0.834,0.19,1.161,0.394c0.328,0.205,0.569,0.464,0.724,0.781c0.154,0.315,0.207,0.654,0.158,1.013
			c-0.036,0.271-0.104,0.517-0.202,0.735c-0.097,0.221-0.231,0.432-0.402,0.633s-0.391,0.409-0.657,0.622
			c-0.266,0.213-0.826,0.611-1.68,1.192l-0.008,0.048l2.602,0.35L918.648,319.623z"/>
		<path fill="#7F4B1C" d="M924.78,316.955c-0.164,1.217-0.486,2.079-0.97,2.592c-0.484,0.513-1.145,0.711-1.986,0.599
			c-0.821-0.11-1.4-0.49-1.737-1.137c-0.338-0.647-0.43-1.553-0.273-2.721c0.163-1.221,0.49-2.091,0.972-2.607
			c0.485-0.516,1.148-0.717,1.988-0.604c0.818,0.108,1.396,0.49,1.736,1.139C924.848,314.866,924.938,315.78,924.78,316.955z
			 M921.662,316.536c-0.104,0.779-0.129,1.319-0.069,1.625c0.059,0.304,0.201,0.471,0.431,0.502c0.232,0.03,0.416-0.099,0.552-0.386
			c0.138-0.287,0.256-0.812,0.358-1.57c0.104-0.762,0.125-1.303,0.068-1.621s-0.198-0.493-0.428-0.524
			c-0.229-0.032-0.412,0.096-0.549,0.377C921.89,315.218,921.767,315.751,921.662,316.536z"/>
	</g>
</g>
<g>
	<g>
		<g>
			<g>
				<g>
					<g>
						<g>
							<defs>
								<rect id="SVGID_1_" x="448.059" y="24.754" width="581.641" height="447.731"/>
							</defs>
							<clipPath id="SVGID_2_">
								<use xlink:href="#SVGID_1_"  overflow="visible"/>
							</clipPath>
							<g clip-path="url(#SVGID_2_)">
								<g>
									<path fill="#512E1D" d="M514.072,499.34c0,0-9.463-46.339-33.183-84.29s14.908-58.957,31.85-105.044
										c16.946-46.082,23.041-27.785,61.674-39.984c38.626-12.195,37.948-14.908,87.422-20.328
										c49.474-5.424,55.571-24.399,65.739-27.11c10.163-2.711,19.65-29.818-9.489-14.232
										c-29.141,15.588-83.358-30.496-87.424-50.15c-4.067-19.652,21.688-37.272,52.181-37.272
										c30.497,0,40.665,16.266,49.474,21.01c8.81,4.742,10.844-12.201,14.427-17.622c3.586-5.421,3.871-4.745,1.161-10.167
										c-2.711-5.421-1.356-18.297,11.521-25.752c12.878-7.455,20.333-20.333,27.107-25.075c6.776-4.746-8.132-9.488,0-9.488
										c8.132,0,13.554,0,27.107-6.1c13.555-6.099,32.53,0.678,48.794,6.1c16.265,5.42,21.01,16.941,25.754,16.265
										c4.743-0.677,1.353-16.265,4.743-6.099c3.39,10.166,14.235,8.81,23.042,20.332c8.812,11.519-0.678,18.297-4.066,26.429
										c-3.387,8.133,10.844,19.654,14.912,21.687c4.064,2.034,37.949-42.018,78.615-23.042
										c40.662,18.975-11.523,50.829-25.754,65.061s-27.789,20.332-42.018,14.911c-14.232-5.421-17.621-8.134-21.688-5.421
										c-4.066,2.711-8.809,23.041-0.678,77.258c8.133,54.216-4.742,40.664-3.727,76.581c1.016,35.916,9.828,25.751,8.471,65.059
										c-1.354,39.306-7.689,62.884-16.941,67.093C739.093,544.496,514.072,499.34,514.072,499.34z"/>
									<path fill="#F2F2F2" d="M771.677,72.133c5.42-6.098,2.379-23.041,2.379-23.041l10.169,1.354c0,0-10.844-8.809-2.034-5.422
										c8.809,3.388,21.645,6.565,35.521-0.641c13.871-7.206,28.109,4.182,30.494,0.945c2.383-3.238,9.488,2.406,18.714,8.506
										c9.229,6.101,14.493,10.844,19.912,10.844c5.422,0,0.679-10.844,0.679-10.844s11.574,8.096,15.702,14.231
										c4.129,6.137,9.336,0.679,16.871,21.118c7.539,20.44-8.176,21.578-8.176,21.578c4.066-10.166,1.354-14.231-12.877-14.231
										c-14.23,0-31.853,18.976-39.983,30.496c-8.134,11.521-4.068,23.72-15.589,50.15c-11.521,26.431,0,13.555-6.777,37.275
										c-6.777,23.721,7.455,16.266,10.166,39.985c2.711,23.719,31.853,32.531,41.34,50.826
										c9.489,18.299,10.166,41.343-5.422,51.508c-15.585,10.167-11.519,6.101-34.562,18.299
										c-23.042,12.199-50.827-1.354-63.704-8.812c-12.878-7.454-8.134,3.39-17.624-7.454c-9.489-10.845-8.13-50.152,3.388-69.905
										c11.524-19.755,19.656-54.796,26.432-76.481c6.777-21.686,3.387-33.206-5.421-50.149
										c-8.812-16.941-18.976-42.018-24.4-53.539c-5.419-11.522-18.234-8.784-18.234-8.784
										C749.379,85.74,766.252,78.233,771.677,72.133z"/>
									<path fill="#F2F2F2" d="M648.733,251.208c-2.942,20.115-7.901,41.852,7.689,29.655
										c15.584-12.198,32.528-16.944,26.43-6.101c-6.102,10.842-16.265,39.307-4.067,24.397
										c12.196-14.908,7.455,6.101,5.421,25.074c-2.033,18.976-7.456,56.25-16.946,68.45
										c-9.486,12.198-17.619,10.167-12.198,31.854c5.423,21.688-21.685,35.239-45.402,56.925
										c-23.725,21.688-10.847,10.844-35.242,14.912c-24.401,4.066,10.844-149.095-29.821-94.877
										c-40.664,54.216-14.909-12.877-17.621-47.439c-2.712-34.564-13.091-47.101-13.091-47.101
										c-2.907,7.217-26.162,36.012-38.417,62.053c-27.408,79.064-10.879,138.379-15.172,131.84
										c16.942,25.812,34.905,11.134,48.458,15.201c13.557,4.066,92.077,15.245,175.6,12.178
										c83.522-3.073,119.802-17.622,189.608-42.533c88.336,75.184,44.995-57.888,46.417-75.407
										c1.42-17.519-6.434-0.657-18.631,27.128c-12.2,27.786-6.101,6.099-10.167-19.651c-4.066-25.755-17.619,32.53-15.587,46.763
										c2.033,14.23-8.809,10.163-27.786,1.352c-18.978-8.807-6.099,1.356-9.489,15.585c-3.387,14.235-4.065-10.842-35.242-25.072
										c-31.175-14.231-19.651-17.618-36.598-46.761c-16.94-29.145-16.94,2.71-14.231,21.686
										c2.712,18.976-23.042,14.233-39.307,24.398c-16.266,10.164-25.076,31.851-25.076,15.587c0-16.265-8.81-10.845,0-27.108
										c8.81-16.264,10.841-71.162,14.017-87.426c3.173-16.264,14.446-8.809,12.414-22.362
										c-2.034-13.555-1.358-10.844,4.742-18.299c6.1-7.455,12.197-12.876,6.479-27.208c-5.721-14.334-22.065,20.431-23.422,0
										c-1.356-20.434,3.388-25.654,23.722-50.051c20.329-24.396,19.879-11.637,14.23-24.396
										c-2.043-4.616-2.881-5.904-2.881-5.904C707.501,225.893,648.725,251.21,648.733,251.208z"/>
									<path fill="#F2F2F2" d="M723.117,252.151c-11.517,9.489-8.13,16.944,10.166,14.911c18.296-2.035,22.362,8.809,22.362,8.809
										c-2.707-5.423-5.418-31.177-8.128-38.632C747.516,237.241,734.64,242.663,723.117,252.151z"/>
									<path fill="#F2F2F2" d="M611.007,407.599c-12.2,15.585-8.809-7.457-6.101-27.638c2.713-20.184,0.681-8.96,5.424-29.969
										c4.741-21.009,10.35-17.174,17.621-12.2C640.827,346.604,623.208,392.01,611.007,407.599z"/>
									<path fill="#F2F2F2" d="M754.681,184.631c-8.811-5.419,0.233-20.258,11.521-15.586
										C785.856,177.176,763.492,190.054,754.681,184.631z"/>
									<path fill="#F2F2F2" d="M880.736,173.788c-2.711-14.231,29.643-16.034,21.008,0
										C897,182.599,883.445,188.021,880.736,173.788z"/>
									<path fill="#F8A893" d="M871.248,310.008c5.447,15.392,10.843,37.95-4.329,50.149c-15.168,12.198-34.982,9.49-73.608,5.422
										c-38.629-4.065-18.976-16.941-19.256-31.696c-0.278-14.757-4.464-21.165,0-42.174
										c4.464-21.011,55.175-16.943,74.151-11.519C867.18,285.613,864.47,300.52,871.248,310.008"/>
									<path fill="#E2816F" d="M783.006,333.881c9.188,4.861,10.306-2.864,8.947-11.461c-1.353-8.596-14.421-33.107-17.899-23.936
										C768.229,313.857,773.819,329.022,783.006,333.881z"/>
									<path fill="#E2816F" d="M855.789,334.904c-7.398,11.52-15.645-5.422-18.354-12.38
										c-2.713-6.962,13.664-34.541,18.354-30.495C867.369,302.017,863.187,323.381,855.789,334.904z"/>
									<circle fill="#351E13" cx="894.53" cy="170.048" r="7.163"/>
									<path fill="#351E13" d="M765.383,168.976c3.957,0,7.162,3.207,7.162,7.163c0,3.954-3.206,7.164-7.162,7.164
										c-3.958,0-7.164-3.21-7.164-7.164C758.22,172.182,761.425,168.976,765.383,168.976z"/>
									<path fill="#351E13" d="M653.027,146.001c-16.266-17.62,23.039-3.387,48.792,0c25.755,3.391,27.844,27.033,15.588,36.545
										C695.509,199.542,669.291,163.622,653.027,146.001z"/>
									<path fill="#351E13" d="M1002.723,144.728c16.266-9.408-5.42-19.056-28.465-17.701
										c-23.041,1.354-41.205,14.333-38.631,35.402C940.373,201.219,986.459,154.135,1002.723,144.728z"/>
									<path fill="#351E13" d="M758.509,298.958c-1.488-21.098-20.938-90.41-20.938-90.41
										C764.704,231.003,758.509,298.958,758.509,298.958z"/>
								</g>
								<path fill="#E1E0E2" d="M781.162,73.109c7.911-5.278,8.575-5.278,8.575-5.278s0-9.235-7.917-13.193
									C781.82,54.638,773.246,78.386,781.162,73.109z"/>
								<path fill="#E1E0E2" d="M821.402,60.576c-7.259-5.279-25.344,0.769-19.133-1.98
									C832.867,45.06,828.657,65.853,821.402,60.576z"/>
								<path fill="#E1E0E2" d="M797.654,86.962c12.532-1.981,10.553,21.109,5.276,10.554c-5.276-10.555-19.13,22.429-17.811,11.214
									c1.319-11.214-28.963-26.018-13.854-21.109C797.654,96.196,785.12,88.94,797.654,86.962z"/>
								<path fill="#E1E0E2" d="M884.728,71.79c5.937-9.896-26.386-9.896-18.471-5.937C879.451,72.449,878.792,81.685,884.728,71.79
									z"/>
								<path fill="#E1E0E2" d="M906.496,88.94c11.875-1.979-10.923-17.769-9.234-9.895C899.242,88.281,894.624,90.92,906.496,88.94
									z"/>
								<path fill="#E1E0E2" d="M827.999,215.595c11.874,8.576,3.296,24.41-6.597,27.706c-9.895,3.299,3.299,14.515-8.577,7.256
									c-11.875-7.256-2.638-5.935,12.535-17.149c15.171-11.214-0.66-11.214-12.535-17.812
									c-11.875-6.597,17.802-23.608,9.894-16.491C809.526,210.979,816.123,207.021,827.999,215.595z"/>
							</g>
						</g>
					</g>
				</g>
			</g>
		</g>
		<path fill="#351E13" d="M912.232,262.898c-2.24-8.165,5.658,45.619-12.341,57.315
			C899.891,320.213,924.061,305.999,912.232,262.898z"/>
		<path fill="#351E13" d="M880.626,158.82c-3.934,1.582,18.002-4.204,22.834,5.325C903.461,164.145,905.285,148.902,880.626,158.82z
			"/>
		<path fill="#351E13" d="M747.56,176.039c0,0-1.283-16.564,14.249-11.945C761.81,164.094,755.366,164.942,747.56,176.039z"/>
	</g>
	<path fill="#E2BD47" d="M660.222,168.493c3.796,11.865,1.243,42.067-4.318,45.066s-35.042-5.357-33.679-14.382
		C623.589,190.155,656.675,157.412,660.222,168.493z"/>
	<circle fill="#CCA023" cx="652.034" cy="175.652" r="4.837"/>
	<g>
		<path fill="#CCA023" d="M641.14,192.396c0.55,0.265,0.985,0.63,1.307,1.099c0.321,0.469,0.491,0.996,0.514,1.582
			c0.021,0.585-0.115,1.184-0.409,1.795c-0.514,1.069-1.231,1.736-2.15,1.998c-0.918,0.261-2.031,0.078-3.337-0.55
			c-1.118-0.537-1.946-1.149-2.488-1.834l1.021-2.122c0.296,0.358,0.656,0.708,1.079,1.051c0.424,0.343,0.808,0.598,1.152,0.764
			c0.48,0.231,0.898,0.308,1.253,0.229s0.629-0.318,0.819-0.714c0.178-0.367,0.185-0.716,0.021-1.048
			c-0.164-0.33-0.511-0.624-1.044-0.88c-0.407-0.194-0.882-0.33-1.427-0.405l-0.723-0.928l2.794-4.882l5.461,2.629l-1.036,2.155
			l-3.261-1.569l-0.726,1.207c0.372,0.1,0.631,0.18,0.778,0.242C640.882,192.275,641.018,192.336,641.14,192.396z"/>
		<path fill="#CCA023" d="M644.038,196.531c0.643-1.336,1.354-2.325,2.134-2.969c0.779-0.644,1.636-0.983,2.57-1.018
			c0.934-0.034,1.945,0.211,3.038,0.737c0.389,0.187,0.825,0.442,1.308,0.766l-0.974,2.024c-0.397-0.293-0.85-0.563-1.36-0.809
			c-0.866-0.416-1.601-0.536-2.208-0.361c-0.606,0.177-1.135,0.685-1.589,1.527l0.078,0.037c0.75-0.553,1.56-0.622,2.429-0.202
			c0.852,0.408,1.379,1.002,1.585,1.775c0.205,0.773,0.072,1.65-0.398,2.628c-0.505,1.051-1.203,1.738-2.088,2.063
			c-0.887,0.323-1.863,0.228-2.929-0.286c-1.131-0.542-1.838-1.335-2.121-2.375C643.227,199.029,643.403,197.849,644.038,196.531z
			 M646.562,200.368c0.275,0.132,0.549,0.136,0.822,0.012c0.271-0.125,0.516-0.413,0.735-0.868c0.374-0.777,0.26-1.311-0.343-1.601
			c-0.297-0.144-0.585-0.158-0.868-0.047c-0.283,0.111-0.492,0.312-0.632,0.6c-0.201,0.418-0.278,0.805-0.228,1.16
			C646.098,199.979,646.27,200.226,646.562,200.368z"/>
	</g>
</g>
<path fill="#E1E0E2" d="M888.591,416.338l9.759,78.376l26.814,4.325C925.165,499.04,907.141,433.777,888.591,416.338z"/>
<rect x="18.705" y="-66.386" opacity="0.1" fill="#FFDAAE" enable-background="new    " width="1953.728" height="551.449"/>
</svg>
