<?xml version="1.0" encoding="utf-8"?>
<!-- Generator: Adobe Illustrator 16.0.0, SVG Export Plug-In . SVG Version: 6.00 Build 0)  -->
<!DOCTYPE svg PUBLIC "-//W3C//DTD SVG 1.1//EN" "http://www.w3.org/Graphics/SVG/1.1/DTD/svg11.dtd">
<svg version="1.1" id="Layer_1" xmlns="http://www.w3.org/2000/svg" xmlns:xlink="http://www.w3.org/1999/xlink" x="0px" y="0px"
	 width="331.818px" height="323.402px" viewBox="0 0 331.818 323.402" enable-background="new 0 0 331.818 323.402"
	 xml:space="preserve">
<circle fill="#26A9E0" cx="163.727" cy="161.083" r="159.678"/>
<path opacity="0.4" fill="#FFFFFF" enable-background="new    " d="M157.821,322.39c9.091,5.683,90.909-13.637,88.636-30.682
	l-30.682-151.136c0,0-69.318-1.136-102.273,27.272L157.821,322.39z"/>
<path opacity="0.5" fill="#FFFFFF" enable-background="new    " d="M113.502,167.844c0,0,59.091,21.592,102.273-27.273
	C215.775,140.571,144.184,132.617,113.502,167.844z"/>
<path opacity="0.3" fill="#FFFFFF" enable-background="new    " d="M129.412,189.436c-10.064-2.908,21.591,87.5,39.773,92.045
	c18.182,4.545,43.182,25,46.591-15.91c3.409-40.908-15.909-50-10.228-76.135c5.683-26.137,4.545-33.236,4.545-33.236
	S180.548,204.208,129.412,189.436z"/>
<path fill="#FFFFFF" d="M201.002,140.98c0,0,18.183-18.182,5.683-39.773s-13.952-31.818,4.388-47.727s-14.616-52.273-46.434-19.318
	C132.82,67.117,119.184-7.356,99.866,20.79s-40.908,45.19-6.818,66.781c34.091,21.591,0,28.409-11.363,37.5
	c-11.364,9.091,39.632-3.032,45.795,20.455c6.163,23.488,0,18.182,0,18.182S174.866,176.208,201.002,140.98z"/>
<polygon opacity="0.4" fill="#FFFFFF" enable-background="new    " points="209.668,165.861 235.094,267.831 216.34,280.331 
	187.059,172.596 "/>
<polygon opacity="0.4" fill="#FFFFFF" enable-background="new    " points="180.003,179.193 199.667,241.693 185.305,241.693 
	166.797,172.596 "/>
<path fill="#FFFFFF" d="M164.639,1.231c14.646-5.727,10.107,10.219,2.157,13.064C158.847,17.14,144.294,9.186,164.639,1.231z"/>
<path fill="#FFFFFF" d="M150.93,25.179c12.107,8.073-17.281,11.364-13.187,0C141.839,13.815,144.112,20.633,150.93,25.179z"/>
<path fill="#FFFFFF" d="M94.49,98.958c5.774,6.635,11.732,12.5,0,11.364c-11.732-1.136-14.005,0.422-18.55-20.244
	S87.034,90.391,94.49,98.958z"/>
<g>
	<path fill="#FFFFFF" d="M84.07,259.823H69.622l6.463-29.678c0.693-3.269,1.634-6.438,2.823-9.508
		c-1.932,1.684-3.554,2.959-4.866,3.825l-7.54,4.643l-5.609-9.359l23.029-14.226h11.552L84.07,259.823z"/>
	<path fill="#FFFFFF" d="M114.936,276.946c-2.625,0-5.262-0.359-7.912-1.077v-11.849c2.452,0.594,4.606,0.892,6.463,0.892
		c2.65,0,4.656-0.73,6.018-2.191c1.361-1.462,2.401-3.875,3.12-7.243l10.734-49.957h14.523l-11.105,51.777
		c-1.065,4.952-2.464,8.821-4.197,11.606c-1.733,2.786-3.993,4.822-6.779,6.11C123.015,276.302,119.393,276.946,114.936,276.946z"/>
	<path fill="#FFFFFF" d="M165.674,245.895c0,1.09,0.278,1.895,0.836,2.414c0.557,0.521,1.219,0.78,1.986,0.78
		c1.461,0,2.792-0.972,3.993-2.916c1.201-1.943,2.16-4.599,2.879-7.967l4.309-20.466h14.374l-8.877,42.083h-11.515l0.483-5.868
		h-0.298c-1.337,2.303-2.928,3.98-4.772,5.032c-1.845,1.053-4.117,1.579-6.816,1.579c-3.491,0-6.215-1.059-8.171-3.176
		c-1.957-2.117-2.934-5.033-2.934-8.747c0-2.625,0.309-5.46,0.928-8.506l4.717-22.397h14.375l-4.792,22.917
		C165.908,242.688,165.674,244.434,165.674,245.895z"/>
	<path fill="#FFFFFF" d="M224.099,231.595c0-1.064-0.272-1.863-0.817-2.396s-1.201-0.799-1.968-0.799
		c-1.412,0-2.719,0.879-3.919,2.637c-1.201,1.759-2.186,4.508-2.953,8.246l-4.309,20.54H195.76l8.877-42.083h11.478l-0.446,5.868
		h0.298c1.361-2.352,2.965-4.042,4.81-5.069s4.104-1.542,6.778-1.542c3.492,0,6.216,1.059,8.172,3.176s2.935,5.046,2.935,8.784
		c0,2.625-0.311,5.46-0.929,8.506l-4.718,22.36h-14.374l4.791-22.954C223.877,234.938,224.099,233.18,224.099,231.595z"/>
	<path fill="#FFFFFF" d="M257.454,259.823H243.08l8.877-42.083h14.448L257.454,259.823z M253.703,208.491
		c0-2.55,0.736-4.481,2.21-5.794c1.473-1.313,3.534-1.969,6.184-1.969c2.253,0,3.993,0.452,5.219,1.355
		c1.226,0.904,1.839,2.198,1.839,3.882c0,2.477-0.719,4.39-2.154,5.738c-1.437,1.351-3.504,2.024-6.203,2.024
		C256.067,213.729,253.703,211.983,253.703,208.491z"/>
</g>
</svg>
