<?xml version="1.0" encoding="utf-8"?>
<!-- Generator: Adobe Illustrator 16.0.0, SVG Export Plug-In . SVG Version: 6.00 Build 0)  -->
<!DOCTYPE svg PUBLIC "-//W3C//DTD SVG 1.1//EN" "http://www.w3.org/Graphics/SVG/1.1/DTD/svg11.dtd">
<svg version="1.1" id="Layer_1" xmlns="http://www.w3.org/2000/svg" xmlns:xlink="http://www.w3.org/1999/xlink" x="0px" y="0px"
	 width="96.5px" height="42px" viewBox="0 0 96.5 42" enable-background="new 0 0 96.5 42" xml:space="preserve">
<g>
	<path fill="#FFFFFF" d="M5.993,20.909c1.6,1.28,4.319,3.359,6.918,3.359c1.12,0,1.96-0.28,2.48-0.72c0.68-0.76,0.479-1.6-0.08-2.08
		c-2.12-1.799-8.438-4.279-8.438-8.398c0-5.479,6.199-10.158,9.758-11.678c1.919-0.8,3.839-1.12,5.159,0.08
		c1,0.92,1.72,2.24,2,3.359c0.4,1.6-0.56,3.16-1.16,4c-1.04,1.4-2.2,3.439-2.76,4.439c-0.2,0.36-0.44,0.56-0.88,0.12
		c-0.76-0.76-1.24-2-0.4-3.879c0.84-1.919,3.839-5.239,2.879-6.239c-1.359-1.4-11.198,4.719-11.398,9.718
		c-0.12,2.6,4.999,4.719,7.239,6.319c1.52,1.08,1.32,2.92-0.44,4.959c-2.399,2.759-9.358,3.519-14.998-3.28
		c-0.44-0.52-0.28-0.8,0.08-0.919C3.273,19.669,4.913,20.029,5.993,20.909z"/>
	<path fill="#FFFFFF" d="M34.63,9.751c0.44-0.44,0.68-0.36,0.76,0.16c0.12,0.84-0.36,1.88-1.64,3.479
		c-2,2.52-5.639,6.359-9.479,12.438c-0.2,0.32-0.4,0.6-0.8,0.4c-1.56-0.76-2.12-1.56-2-3.679c0.16-2.8,1.24-8.519,2.6-12.678
		c0.16-0.439,0.48-0.6,0.8-0.32c1.32,1.12,1.52,2.6,0.96,5.039c-0.72,3.08-1.52,5.319-2.08,9.679
		C26.592,19.589,31.911,12.55,34.63,9.751z"/>
	<path fill="#FFFFFF" d="M38.312,24.908c3.319,0.16,6.239-3.04,7.958-5.679c0.2-0.32,0.52-0.32,0.68,0.04
		c0.16,0.32,0.04,1.44-0.68,2.48c-1.68,2.439-4.759,4.279-7.838,4.319c-5.079,0.08-6.839-4.919-4.239-10.078
		s6.679-7.239,8.678-6.079c1,0.6,1.72,1.2,2.36,2.08c0.72,0.959,0.4,3.399-1.28,5.439c-1.959,2.399-4.639,3.439-7.439,1.16
		C35.232,22.269,36.192,24.789,38.312,24.908z M41.631,15.71c1.28-1.68,2.16-3.759,1.6-4.199c-0.84-0.68-4.16,1.72-6.039,5.519
		c-0.12,0.24-0.24,0.48-0.32,0.68C38.832,18.949,40.472,17.229,41.631,15.71z"/>
	<path fill="#FFFFFF" d="M54.471,27.068c-2.2,5.359-5.039,11.718-8.278,12.998c-0.8,0.32-1.6,0.2-2.32-0.84
		c-0.84-1.2-1.56-2.6-0.8-4.959c1.16-3.599,4.599-6.039,8.559-7.559c0.4-0.88,0.76-1.84,1.16-2.76c-1.16,1.16-2.56,2-4.039,2
		c-3.68,0-4.399-5-1.16-9.798c3.12-4.639,6.359-6.439,8.399-6.439c1.6,0,2.399,1.24,2.359,2.64c0.48-0.8,0.92-1.52,1.32-2.2
		c0.32-0.56,0.72-0.6,1-0.24c0.6,0.72,0.92,2.44-0.08,4.399c-1.2,2.399-3.719,7.239-5.399,11.118
		c3.359-1.68,5.559-3.879,7.159-5.999c0.24-0.32,0.6-0.32,0.68,0.08c0.08,0.36-0.12,1.24-0.8,2.319
		C60.67,24.269,57.79,25.868,54.471,27.068z M44.672,37.826c0.52,0.76,3.68-3.399,6.279-9.479
		C45.752,31.387,43.993,36.866,44.672,37.826z M56.59,11.75c-1.24-0.08-4.159,2.479-6.359,5.959c-2.16,3.439-2.6,6.959-1,6.999
		c1.56,0.04,3.599-2.479,5.639-5.999C57.39,14.31,57.75,11.831,56.59,11.75z"/>
	<path fill="#FFFFFF" d="M76.069,9.991c0.36-0.52,0.68-0.6,0.96-0.24c0.6,0.72,0.92,2.439-0.04,4.439
		c-0.88,1.8-2.879,4.799-3.839,6.919c-1,2.24-1.04,3.959,0.32,3.879c1.64-0.08,3.839-2.799,5.239-5.559c0.2-0.36,0.48-0.4,0.64-0.04
		c0.16,0.36,0.16,1.36-0.36,2.479c-1.04,2.2-3.559,4.399-5.759,4.279c-2.16-0.12-3.279-1.399-3.279-3.279
		c-1.28,1.64-3.08,3.12-5,3.12c-3.719,0-4.479-5.079-1.16-9.918c3.239-4.719,6.399-6.519,8.398-6.519c1.72,0,2.52,1.32,2.44,2.879
		C75.149,11.471,75.629,10.631,76.069,9.991z M72.87,11.63c-1.28-0.12-4.199,2.48-6.399,6.039c-2.12,3.439-2.64,6.959-1.08,6.999
		c1.64,0.04,3.72-2.52,5.759-6.039C73.67,14.23,74.03,11.75,72.87,11.63z"/>
	<path fill="#FFFFFF" d="M90.189,9.751c1.32,0.2,2.56,2.16,1.56,4.239c-0.84,1.76-2.799,4.719-3.719,6.799
		c-1.04,2.319-0.8,4.199,0.64,4.119c1.64-0.08,3.6-2.719,5.119-5.519c0.2-0.36,0.479-0.36,0.68-0.04c0.28,0.44,0.2,1.36-0.359,2.52
		c-1.08,2.24-3.6,4.279-5.919,4.279c-3.399,0-4.199-2.479-3.04-5.959c1.32-3.919,4.839-8.159,4.119-8.479
		c-0.4-0.16-2.719,0.96-5.279,3.759c-2.36,2.56-4.12,6.399-5.839,10.159c-0.16,0.36-0.4,0.52-0.76,0.16
		c-0.8-0.8-1.04-2.12-0.4-4.119c0.8-2.52,3.879-8.079,6.399-11.798c0.28-0.439,0.6-0.4,0.84,0c0.6,1,0.56,2.36,0.12,3.8
		C86.15,11.75,88.87,9.551,90.189,9.751z"/>
</g>
<g>
</g>
<g>
</g>
<g>
</g>
<g>
</g>
<g>
</g>
<g>
</g>
</svg>
